<svg width="16" height="16" viewBox="0 0 16 16" fill="none" xmlns="http://www.w3.org/2000/svg">
<rect width="16" height="16" rx="8" fill="white"/>
<path d="M8.5814 8.35007V9.60631C8.07624 9.41397 7.5356 9.35497 7.00488 9.43428C6.47416 9.51358 5.96886 9.72886 5.5314 10.062C5.09395 10.3952 4.73712 10.8366 4.49088 11.3491C4.24464 11.8615 4.11618 12.4302 4.11628 13.0072L3 13.0066C2.99983 12.2726 3.15568 11.5483 3.45561 10.8892C3.75554 10.2302 4.19159 9.65376 4.73035 9.20421C5.26911 8.75467 5.89628 8.44392 6.56381 8.29576C7.23133 8.1476 7.92149 8.16597 8.5814 8.34947V8.35007ZM7.46512 7.59752C5.61488 7.59752 4.11628 5.98364 4.11628 3.99108C4.11628 1.99853 5.61488 0.384644 7.46512 0.384644C9.31535 0.384644 10.814 1.99853 10.814 3.99108C10.814 5.98364 9.31535 7.59752 7.46512 7.59752ZM7.46512 6.39538C8.69861 6.39538 9.69768 5.31946 9.69768 3.99108C9.69768 2.66271 8.69861 1.58679 7.46512 1.58679C6.23163 1.58679 5.23256 2.66271 5.23256 3.99108C5.23256 5.31946 6.23163 6.39538 7.46512 6.39538ZM11.9302 10.0018H13.6047V11.204H11.9302V13.3077L9.13954 10.6029L11.9302 7.89806V10.0018Z" fill="#1DC7AC"/>
</svg>
