<svg width="11" height="14" viewBox="0 0 11 14" fill="none" xmlns="http://www.w3.org/2000/svg">
<path d="M5.57647 8.35019V9.60643C5.10193 9.41409 4.59405 9.3551 4.0955 9.4344C3.59695 9.5137 3.12227 9.72898 2.71133 10.0622C2.30039 10.3954 1.96519 10.8367 1.73387 11.3492C1.50255 11.8617 1.38187 12.4303 1.38197 13.0073L0.333344 13.0067C0.333181 12.2727 0.479586 11.5484 0.76134 10.8894C1.04309 10.2303 1.45272 9.65388 1.95883 9.20434C2.46494 8.75479 3.0541 8.44404 3.68116 8.29588C4.30823 8.14772 4.95656 8.16669 5.57647 8.35019ZM4.52785 7.59765C2.78975 7.59765 1.38197 5.98376 1.38197 3.99121C1.38197 1.99865 2.78975 0.384766 4.52785 0.384766C6.26594 0.384766 7.67373 1.99865 7.67373 3.99121C7.67373 5.98376 6.26594 7.59765 4.52785 7.59765ZM4.52785 6.3955C5.68658 6.3955 6.6251 5.31958 6.6251 3.99121C6.6251 2.66283 5.68658 1.58691 4.52785 1.58691C3.36912 1.58691 2.4306 2.66283 2.4306 3.99121C2.4306 5.31958 3.36912 6.3955 4.52785 6.3955ZM10.197 10.5L10.2207 10.6205L10.2953 11L10.197 10.5L10.2485 10.8384L10.197 11V10.5Z" fill="#FAAD39"/>
<path d="M8.5 11L8.5 13L11 10.5L8.5 8L8.5 10L7 10L7 11L8.5 11Z" fill="#FAAD39"/>
</svg>
